<svg width="100" height="100" viewBox="0 0 100 100" fill="none" xmlns="http://www.w3.org/2000/svg">
<path d="M49.9479 72.1875C54.9826 72.1875 59.2014 70.4861 62.6042 67.0833C66.0069 63.6806 67.7083 59.4618 67.7083 54.4271C67.7083 49.3924 66.0069 45.191 62.6042 41.8229C59.2014 38.4549 54.9826 36.7708 49.9479 36.7708C44.9132 36.7708 40.7118 38.4549 37.3437 41.8229C33.9757 45.191 32.2917 49.3924 32.2917 54.4271C32.2917 59.4618 33.9757 63.6806 37.3437 67.0833C40.7118 70.4861 44.9132 72.1875 49.9479 72.1875ZM49.9479 65.9375C46.6493 65.9375 43.9236 64.8438 41.7708 62.6562C39.6181 60.4688 38.5417 57.7257 38.5417 54.4271C38.5417 51.1285 39.6181 48.4028 41.7708 46.25C43.9236 44.0972 46.6493 43.0208 49.9479 43.0208C53.2465 43.0208 55.9896 44.0972 58.1771 46.25C60.3646 48.4028 61.4583 51.1285 61.4583 54.4271C61.4583 57.7257 60.3646 60.4688 58.1771 62.6562C55.9896 64.8438 53.2465 65.9375 49.9479 65.9375ZM14.5833 87.5C12.9167 87.5 11.4583 86.875 10.2083 85.625C8.95833 84.375 8.33333 82.9167 8.33333 81.25V27.8125C8.33333 26.2153 8.95833 24.7743 10.2083 23.4896C11.4583 22.2049 12.9167 21.5625 14.5833 21.5625H29.8958L37.5 12.5H62.5L70.1042 21.5625H85.4167C87.0139 21.5625 88.4549 22.2049 89.7396 23.4896C91.0243 24.7743 91.6667 26.2153 91.6667 27.8125V81.25C91.6667 82.9167 91.0243 84.375 89.7396 85.625C88.4549 86.875 87.0139 87.5 85.4167 87.5H14.5833ZM14.5833 81.25H85.4167V27.8125H67.1875L59.5833 18.75H40.4167L32.8125 27.8125H14.5833V81.25Z" fill="black"/>
</svg>
