<svg width="192" height="143" viewBox="0 0 192 143" fill="none" xmlns="http://www.w3.org/2000/svg">
<path d="M0 143V126.176H32V117.765C27.6 117.765 23.8333 116.117 20.7 112.823C17.5667 109.528 16 105.568 16 100.941V16.8235C16 12.1971 17.5667 8.23652 20.7 4.94191C23.8333 1.6473 27.6 0 32 0H160C164.4 0 168.167 1.6473 171.3 4.94191C174.433 8.23652 176 12.1971 176 16.8235V100.941C176 105.568 174.433 109.528 171.3 112.823C168.167 116.117 164.4 117.765 160 117.765V126.176H192V143H0ZM32 100.941H160V16.8235H32V100.941Z" fill="#080809"/>
</svg>
