<svg width="100" height="100" viewBox="0 0 100 100" fill="none" xmlns="http://www.w3.org/2000/svg">
<path d="M50 45.625L54.375 50L80.3125 24.0625L75.9375 19.6875L50 45.625ZM18.75 81.25H23.125L50 54.375L45.625 50L18.75 76.875V81.25ZM56.4583 56.4583L43.5417 43.5417L64.1667 22.9167L61.0417 19.7917L36.6667 44.1667L32.1875 39.6875L55.9375 15.9375C57.6736 14.2014 59.3924 13.316 61.0938 13.2812C62.7951 13.2465 64.5486 14.1319 66.3542 15.9375L68.75 18.3333L73.4375 13.6458C74.2014 12.8819 75.0694 12.5 76.0417 12.5C77.0139 12.5 77.882 12.8819 78.6458 13.6458L86.25 21.25C87.0139 22.0139 87.3958 22.9167 87.3958 23.9583C87.3958 25 87.0139 25.9028 86.25 26.6667L56.4583 56.4583ZM25.4167 87.5H12.5V74.5833L43.5417 43.5417L56.4583 56.4583L25.4167 87.5Z" fill="black"/>
</svg>
