<svg width="158" height="143" viewBox="0 0 158 143" fill="none" xmlns="http://www.w3.org/2000/svg">
<path d="M9.21667 143C6.58333 143 4.38889 142.206 2.63333 140.617C0.877778 139.028 0 137.042 0 134.658V102.483C0 100.762 0.658333 99.2062 1.975 97.816C3.29167 96.4257 4.97407 95.4657 7.02222 94.9361L37.3056 89.375C39.3537 89.1102 41.4384 89.2757 43.5597 89.8715C45.681 90.4674 47.4 91.3611 48.7167 92.5528L69.3444 111.222C74.9037 108.309 80.1704 105.098 85.1444 101.59C90.1185 98.0808 94.8731 94.2741 99.4083 90.1694C104.236 85.9324 108.662 81.5299 112.685 76.9618C116.708 72.3938 120.182 67.6602 123.108 62.7611L101.822 43.2972C100.652 42.238 99.8472 40.9801 99.4083 39.5236C98.9694 38.0671 98.8963 36.2796 99.1889 34.1611L104.894 6.35556C105.187 4.63426 106.138 3.14468 107.747 1.88681C109.356 0.628935 111.185 0 113.233 0H148.783C151.417 0 153.611 0.794444 155.367 2.38333C157.122 3.97222 158 5.95833 158 8.34167C158 24.8926 154.013 41.2449 146.04 57.3986C138.067 73.5523 126.766 88.2495 112.136 101.49C97.5065 114.731 81.2676 124.959 63.4194 132.176C45.5713 139.392 27.5037 143 9.21667 143ZM131.228 47.6667C133.715 42.5028 135.617 37.2727 136.933 31.9764C138.25 26.6801 139.274 21.3176 140.006 15.8889H120.694L116.744 34.5583L131.228 47.6667ZM52.6667 118.372L38.1833 105.264L17.5556 109.236V126.714C23.5537 126.317 29.4787 125.39 35.3306 123.933C41.1824 122.477 46.9611 120.623 52.6667 118.372Z" fill="black"/>
</svg>
